<!DOCTYPE svg PUBLIC "-//W3C//DTD SVG 1.1//EN" "http://www.w3.org/Graphics/SVG/1.1/DTD/svg11.dtd" [
	<!ENTITY ns_flows "http://ns.adobe.com/Flows/1.0/">
]><svg xmlns="http://www.w3.org/2000/svg" width="79" height="80" viewBox="3 3.5 79 80" overflow="visible" enable-background="new 3 3.5 79 80"><g fill-rule="evenodd" clip-rule="evenodd"><path d="M29 17c3.3.3 6.5 4 4 7-3.3-2.3-3.2-1.5-7 0-2.3-3.9 1.9-3.9 3-7zM60 24c-3.3-2.3-3.2-1.5-7 0-4.3-7.9 11.5-8.4 7 0zM25 25c-3.1 3.9.9 4.3-1 8-2.9-.1-3.7-2.3-5-4 .3-3 3.4-6.3 6-4zM61 32c1.7-3.9 1.7-3.1 0-7 8.2-4.7 8.2 11.7 0 7zM29 26c1.5.9 3.2 1.5 3 4-3.4 2.3-5.2-1.3-3-4zM56 26c1.3.4 1.6 1.8 3 2-.4 1.3-1.8 1.6-2 3-1.3-.4-1.6-1.8-3-2 .4-1.3 1.8-1.6 2-3zM41 32c8-1.9 12.7 3.4 13 9 .9 14.5-21.1 15-22 2-.3-4.9 4.1-9.8 9-11zm5 5c-2 0-1.3-2.7-4-2-3.4 4 3.4 6.8 4 2zm-10 5c1.8.9 2.9 3.2 5 1 1-3.7-4.9-4-5-1zm14-1c-8.1-4.7-2.3 8.5 0 0zm-4 5c-2 0-1.3-2.7-4-2-3.4 4 3.4 6.8 4 2zM25 52c-3.1 3.9.9 4.3-1 8-2.9-.1-3.7-2.3-5-4-.1-3.4 3.5-6.2 6-4zM68 56c-1.5 1.9-4.2 5.5-7 3 1.5-3.8 2.3-3.7 0-7 3-2.5 6.7.7 7 4zM29 53c1.6-.3 1.7.9 3 1 .7 2.7-2 2-2 4-2.5-.1-2.4-3.7-1-5zM56 53c1.3.4 1.6 1.8 3 2-.4 1.3-1.8 1.6-2 3-1.3-.4-1.6-1.8-3-2 .4-1.3 1.8-1.6 2-3zM33 60c2.2 2.1.2 4.4-1 6-4.4.4-6.3-1.7-7-5 3.5-2.1 4.7 2.7 8-1zM61 61c.2 2.5-1.6 3.1-2 5-4.4.4-6.3-1.7-7-5 3.9-.3 5.1-.3 9 0zM37 29c.3-2.6-3.9-.8-3-4h7c-.9-5.5-7.1-5.6-9-10 4.4-23.3 35.7.5 13 9 1.2 4.1 3.9.6 6 0-1.6 4.1 3.1 13.4 9 9v7c5.4-1 5.4-7.3 10-9 13.7 1.3 12.9 19.4 1 22-5.4-1-5.4-7.3-10-9-5.1 1.5 2.3 4.5-1 7-4.5-4.7-5.3 2.3-10 3 3.2-5.4 8.6-5.7 9-11 .4-5.9-10.4-17.1-16-17-4.8 0-7.4 6.1-11 8-1.4.7 3.8-4.8 5-5zm0-12c4.6 1.2 3.2-3.5 6-4 3.1.2 1.7 5 6 4 2.7-4.5-2.9-8.1-7-9-2.3 2.1-7.7 5.1-5 9zm5 5c4.7 0 4.7-5 0-5-1.3 1.3-1.3 3.7 0 5zm26 14c-1 4.7 4.7 2.7 4 7-1.9 1.1-4.8 1.2-4 5 3.9 2.7 6.9-2.7 9-5-.9-4.1-4.5-9.7-9-7zm-5 5c-.7 3.5 3.5 3.6 5 2 .7-3.5-3.5-3.6-5-2zM28 38c.3-2.6-3.9-.8-3-4 2.1-2.2 3.2.1 5 1-6.5 4.6 4.4 18.6-5 14 .7-.9 1.8-1.5 3-2-.4-1.3-1.8-1.6-2-3-5.3.7-4.6 7.4-9 9-6.7-1.3-10.3-5.7-12-12 3.1-3.9 5-9 11-10 4.8.9 5.1 6.2 8 9 2.7.7 2-2 4-2zm-9 8c-1.8-1.2-3.4-2.6-5-4 .7-2.6 4.6-2.1 5-5-12-8.7-9.2 20 0 9zm4-3c.3-2.6-1.4-3.3-4-3-.8 3.6 2.1 5 4 3zM52 59c-3 2.4-4-4.5-7 0 1.3 4.4 5.9 5.4 9 8-.3 15.9-20.4 15.4-22 1 2.9-2.8 6.9-4.4 9-8-1.9-4.8-4.7 2.4-7-2 3.6-1.7 15.8-3.6 18 1zm-11 4c-.2 2.5 1.5 3.1 3 4 .2-1.4 1.6-1.7 2-3-2 0-1.3-2.7-4-2-.1.6-.1 1.2-1 1zm3 13c3-1.9 9.2-7.6 3-10-1 2-1.7 4.3-4 5-1.2-2.1-2.9-3.8-5-5-4.1 3.6 1.7 8.8 6 10z"/></g></svg>