<!DOCTYPE svg PUBLIC "-//W3C//DTD SVG 1.1//EN" "http://www.w3.org/Graphics/SVG/1.1/DTD/svg11.dtd" [
	<!ENTITY ns_flows "http://ns.adobe.com/Flows/1.0/">
]><svg xmlns="http://www.w3.org/2000/svg" width="17" height="16" viewBox="0.6 0.8 17 16" overflow="visible" enable-background="new 0.6 0.8 17 16"><g fill-rule="evenodd" clip-rule="evenodd"><path d="M10 1.8c-.8 2-1.6-1.3 0 0zM8.2 2.4h.5c.2.2.3.5.2.9l-.7.2c-.3-.3-.3-.9 0-1.1zM10.9 3.1c-.4 0-.2.5-.7.4-.1-.2-.2-.4-.4-.4 0-.9 1.1-.9 1.1 0zM9.3 3.3c.8.1.9 1.2-.2 1.1-.4-.4 0-.8.2-1.1zM6.2 5.8c.8.6-.5.7 0 1.5 1.1 0 1.4-.7 1.8-1.3-.6-2.8-3.6-1.1-4 .7.3 1.1 1.8 1 2 2.2-.5.8-1.6 1-2 1.8.3 1.8 3.2 3.5 4 1.1-.2-.9-.8-1.4-1.6-1.6-.9.6.6.8 0 1.5-.8.1-1-.3-1.3-.7.2-3 3.8-1 3.8.7 0 .9-1.1 2.2-2 2.4-1.9.3-3.4-1.6-3.8-3.5.5-.7 1.5-1 2-1.6-.2-1.1-1.6-1.1-2-2 .7-1.8 1.5-3.4 3.1-3.5 1.3-.1 2.7 1.3 2.7 2.4 0 1-1.3 2.4-2.4 2.4-1.2-.2-2.2-2.1-.3-2.5zM15.8 6.9c-.5.8-1.5.9-2 1.6.1 1.4 1.8 1.1 2 2.4-.7 1.5-1.8 2.6-3.3 3.3-1.3-.6-2.7-1.1-2.5-2.7.1-1 1.4-2.2 2.2-2.2 1 0 2.9 1.7.4 2.4-.6-.7.9-.9 0-1.5-2.5.5-1.7 2.8-.2 2.9.9.1 2.4-1.2 2.4-2.2-.1-1.4-1.4-.8-1.8-2.2.3-1.3 1.7-.8 1.8-2 .1-1.1-1.4-2.4-2.4-2.4-1.5.1-2.4 2.5.2 2.9.8-.6-.2-.4-.2-1.3.7-.5 1.2.3 1.5.7-.9 3-3.9.7-3.9-.8 0-1.2 1.3-2.4 2.5-2.4 1.7.1 2.8 2.2 3.3 3.5zM9.1 6.4c.4-.1.5.1.7.2.1.3-.1.4-.2.7-.6-.1-.7-.4-.5-.9zM1.1 8.9c.3-2.1 2.7-1.9 2.9-.4.2 1.7-2.4 2.2-2.9.4zm1.3.4c.5.1.4-.4.7-.4 0-.5-.3-.6-.5-.7-.3.3-.6.7-.2 1.1zM8 9.8c0-.6.6-.6.9-.9.1-.9-1.1-.5-.9-1.4.7-.4 1 .4 1.3.9.7-.1.5-1.1 1.3-1.1.1.2.2.3.4.4-.1.7-.8.7-1.1 1.1.2.4.7.6 1.1.9l-.4.5c-.6 0-.6-.6-.9-.9-.7 0-.7.6-1.1.9-.4 0-.5-.2-.6-.4zM14.7 8.9c.3-2.1 2.8-1.9 2.9-.4.2 1.7-2.3 2.2-2.9.4zm1.1-.5c-.1.4 0 .7.2.9.5.1.4-.4.7-.4-.1-.6-.4-.8-.9-.5zM11.3 8.2c.3.2.6.3.5.7-.4.4-.5.4-.9 0-.1-.5.4-.4.4-.7zM7.1 8.4c.4-.1.7 0 .9.2 0 .4-.3.7-.7.7-.3-.5-.4-.4-.2-.9zM9.8 10.9c-.2.2-.7.2-.9 0-.1-.7 1.1-1 .9 0zM10 13.8c-.4 0-.2.5-.7.4-.1-.2-.2-.3-.4-.4 0-.9 1.1-.9 1.1 0zM8.4 14c.4.1.8.7.4 1.1h-.5c-.5-.4-.2-.8.1-1.1zM10.9 14.7c-.2 0-.1.2-.2.4-.6.2-.6-.3-.9-.4 0-.9 1.1-.9 1.1 0zM10 15.5c-.8 1.9-1.6-1.4 0 0z"/></g></svg>