<!DOCTYPE svg PUBLIC "-//W3C//DTD SVG 1.1//EN" "http://www.w3.org/Graphics/SVG/1.1/DTD/svg11.dtd" [
	<!ENTITY ns_flows "http://ns.adobe.com/Flows/1.0/">
]><svg xmlns="http://www.w3.org/2000/svg" width="68" height="59" viewBox="4.8 5.4 68 59" overflow="visible" enable-background="new 4.8 5.4 68 59"><g fill-rule="evenodd" clip-rule="evenodd"><path d="M17 29c-.4 2.9-4.3 2.4-5 5 .4 2.9 3.4 3.2 5 5-.5.8-1.3 3-3 3-1.8 0-7.2-4.2-7-8 .1-1.4 2-4.5 4-6-.2.1 2.8-1.1 2-1 2-.2 2.4 1.3 4 2zM62 40c.3-3.4 4.4-2.9 5-6-.7-2.9-5.4-1.9-5-6 1.4-.8 2.6-1.7 4 0 .3.3 1.6-.3 2 0 1.8 1.2 4 5.3 4 6 .1 2.3-1.3 1.8-2 3-.6 1-.2 2.3-1 3h-2c-1.7 2.1-2.3 2.3-5 0zM25 31c-.1 1.9-3.3.7-3 3-.7 2.7 2.1 1.9 3 3-3 2.9-8.1-.5-8-4 2.2-1.1 4.1-2.6 8-2zM54 32c2.6-3.2 6.4.9 8 2-1.4 2.6-3.7 4.3-8 4 1.7-2.2 4.9-5 0-6zM26 40l-4 4c-.3 1.6.9 1.7 1 3 4.4.4 6.2-1.8 8-4 1.8.2.6 3.4 2 4 2.9-.4 4.6-2.1 5-5 3.7 0 3.8 3.5 6 5 2.6.3 3.3-1.4 3-4 2.7 1.3 3.6 4.4 8 4 .9-.4 1.8-.9 2-2 .5-3.1-2.5-2.8-4-4 2.7-2.7 8.8 1.2 9 5-2.1 2.5-4.1 5.2-8 6-1.2-1.8-2.6-3.4-4-5-1.7 0-2.6.7-3 2 .4 2.9 3.4 3.2 5 5-1.1 3.9-3.3 6.7-7 8-3.3 0-2.7-4-5-5-3.5-.2-3.1 3.5-5 5-4.4-.6-6.5-3.5-8-7 .3-3.4 4.4-2.9 5-6-.2-.8-1-1-1-2-4.4-.8-4 3.3-6 5-4.4-.6-6.5-3.5-8-7 0-1.6 1.2-2.2 2-3 1.3-1.2 2.9-2.6 7-2zm11 7c-1.4 3-7.5 5.3-4 10 3.7 0 3.8-3.5 6-5 3.4.6 2.4 5.6 7 5 2.2-4.9-2.3-10.8-9-10zM17 24c.7-3.7 3.7-5 6-7 2.9.4 4.6 2.1 5 5 2.5.2 3.1-1.5 4-3-1.5-2.2-5-2.3-5-6 2-2 3.3-4.7 6-6 2.9.4 4.6 2.1 5 5 3.7 0 3.8-3.5 6-5 4.5.9 7.1 3.5 8 8-1.5 1.9-5.2 1.5-5 5 .2.8 1 1 1 2 3.7 0 3.8-3.5 6-5 4.5.9 7.1 3.5 8 8-3.2 1.5-4.4 4.9-10 4 1.5-1.8 4.2-2.5 5-5-1.6-4.3-8.3-.8-9 2-2.1-.3-.2-4.4-3-4-3.5-.2-3.1 3.5-5 5-2.5-.8-3.2-3.5-5-5-2.6-.3-3.3 1.4-3 4-2.7-1.3-3.6-4.4-8-4-.9.4-1.8.9-2 2-.2 2.8 2.8 2.5 4 4-.4 1.3-9.1-.5-9-4zm23-2c2.6-.2 5.4-4.1 6-5 1.2-1.8 1.3-3.5 0-5-5-1-3.5 4.5-7 5-2.1-1.6-1.9-5.4-6-5-3.8 4.8 4.1 10.2 7 10zM37 38c-2.3.5 2.3-5.4-1-6 1.3-1.9 4.4 1.1 7-1-.8.7-2.2 5.6 0 6 .5 2.3-5.4-2.3-6 1z"/></g></svg>