<svg width="155" height="155" viewBox="0 0 155 155" xmlns="http://www.w3.org/2000/svg"><title>Artboard</title><desc>Created with Sketch.</desc><g fill="rgba(54, 25, 23, 0.8)"><path d="M76.95 17c.832 3.412 2.169 8.796 3.3 13.75 1.115 4.887 1.526 10.192 3.3 13.383.696 1.252 1.906 2.418 3.667 2.2.544-1.584-2.159-2.087-1.1-4.217 4.738-2.786 6.892 5.697 3.3 7.15-2.672 1.081-6.126-.729-7.517-2.2-2.501-2.645-3.548-6.921-4.583-10.633-1.321 3.313-1.787 6.855-3.85 9.533-1.322 1.716-4.305 3.858-7.15 3.667-2.051-.137-3.719-1.733-3.667-4.033.07-3.048 5.976-6.216 5.867-1.283-.271.89-1.921.401-2.017 1.467 1.466 1.698 3.995-1.004 4.583-2.2.771-1.569 1.135-4.271 1.65-6.6 1.378-6.229 2.946-13.901 4.217-19.983z"/><path d="M77.317 41.2c1.205 2.095 2.134 4.466 3.117 6.783-1.997-.142-4.071-.206-6.05-.367.902-2.214 2.049-4.184 2.933-6.417"/><path d="M76.4 64.85c-.664.314-1.498.457-2.567.367.08-2.661.346-9.597-1.283-10.817-1.703-1.275-4.369.278-5.683.917-1.385.672-3.96 1.803-4.033 3.3-.117 2.396 6.813 6.325 4.583 11.55-1.869 4.379-7.433 3.821-13.383 3.3-.993 1.025-1.07 3.939-3.117 3.3-1.279-1.555-.251-5.317.733-6.417 2.729-.715 5.911 1.567 9.35 1.1 1.672-.227 3.659-1.427 3.85-3.117.406-3.586-5.896-6.642-5.683-10.267.23-3.926 10.373-7.107 14.117-7.7 2.212-.35 2.92 4.738 3.117 6.233.393 2.989.578 5.593 0 8.25"/><path d="M102.983 70.35c1.46.926 1.872 4.641 1.1 6.6-2.296.096-2.345-2.055-3.117-3.483-5.565.634-13.303 1.017-13.933-4.767-.144-1.325.222-2.791.733-3.85 1.043-2.161 4.298-4.473 4.217-6.233-.081-1.753-7.479-6.254-9.717-4.033-2.068 2.051-1.047 7.014-1.283 10.633-1.068.091-1.903-.053-2.567-.367-.45-3.546-.505-13.739 2.567-14.483h.183c2.913.376 5.396 1.203 8.433 2.567 2.3 1.033 5.834 2.97 6.05 4.95.394 3.617-5.948 6.666-5.683 10.267.126 1.717 2.057 3.017 3.667 3.3 3.408.598 6.716-1.808 9.35-1.1"/><path d="M51.833 52.383c1.625.087 3.431 1.579 5.317 2.017-.954 1.063-1.846 2.188-3.117 2.933-.623-1.76-1.421-3.346-2.2-4.95"/><path d="M102.617 52.2c-.103 1.609-1.69 3.32-2.2 5.133-1.111-.783-1.829-1.959-2.933-2.75 1.477-1.029 3.532-1.479 5.133-2.383"/><path d="M70.717 59.533c-1.091.925-2.399 1.634-3.85 2.2-.595-1.422-1.325-2.709-2.2-3.85.973-.921 2.452-1.337 3.483-2.2 1.155.984 1.497 2.781 2.567 3.85"/><path d="M86.483 55.683c1.399.434 2.292 1.375 3.667 1.833-.325 1.753-1.558 2.597-2.017 4.217-1.543-.412-2.48-1.431-3.85-2.017.74-1.338 1.629-2.527 2.2-4.033"/><path d="M54.217 69.433c-.868.012-1.805.093-2.017-.55.846-3.253 3.695-6.08 5.683-8.8 3.943 1.571-2.895 7.332-3.667 9.35"/><path d="M102.617 68.7c-.028.889-1.113.72-2.017.733-.7-.812-1.685-2.241-2.75-3.85-1.245-1.88-3.629-4.097-1.283-5.5 2.531 2.236 4.893 5.617 6.05 8.617"/><path d="M71.267 60.817c.448.408.881.83.917 1.65-1.273.56-2.369 1.297-3.667 1.833-.276-.519-.741-.848-.733-1.65 1.14-.633 2.446-1.099 3.483-1.833"/><path d="M83.55 60.817c1.249.584 2.425 1.242 3.667 1.833.008.802-.458 1.131-.733 1.65-1.33-.564-2.425-1.364-3.85-1.833.233-.623.651-1.06.917-1.65"/><path d="M36.433 77.133c4.317 1.438 9.907 2.95 12.1 6.6.838 1.395 1.418 3.992.733 5.683-1.317 3.255-9.187 2.02-7.517-2.933 1.607-1.416 2.954.373 4.217.917.951-4.527-4.632-4.755-8.8-5.683-6.236-1.389-13.9-3.484-20.167-4.583 4.13-1.197 9.321-2.052 14.85-3.3 4.649-1.049 11.474-1.567 13.75-4.4.524-.652 1.411-2.113.367-2.933-1.238-.016-.738 1.707-1.65 2.017-3.409.582-2.746-3.087-1.467-4.583 2.194-2.566 6.5-.794 6.783 2.2.275 2.903-1.948 5.991-3.667 7.333-2.634 2.057-5.959 2.659-9.533 3.667"/><path d="M113.067 67.783c-.533.506-1.217.861-2.383.733-.89-.271-.401-1.921-1.467-2.017-1.747 1.668 1.218 4.171 2.567 4.767 1.707.753 4.296.951 6.6 1.467 6.07 1.358 13.592 3.042 19.617 4.217-4 1.119-8.766 2.011-13.567 3.117-4.594 1.058-9.829 1.633-13.2 3.3-1.369.677-3.053 1.972-2.383 4.033 1.494-.354 2.675-2.421 4.4-.917 1.963 4.707-7.011 6.684-7.7 2.383-1.207-7.536 6.994-9.919 13.017-11.55-5.481-1.619-13.614-4.098-13.2-11 .312-5.203 8.828-4.518 7.7 1.467"/><path d="M73.467 65.033c-1.455.439-2.474 1.315-3.85 1.833-.111-.684-.69-.899-.733-1.65 1.605-.501 4.132-3.208 4.583-.183"/><path d="M82.267 63.383c1.407.488 2.545 1.244 3.85 1.833-.094.701-.603.986-.733 1.65-1.346-.549-2.429-1.36-3.85-1.833.044-.751.623-.966.733-1.65"/><path d="M60.633 69.617c2.085-.401 2.006-5.026-1.283-3.85-2.444.874-.99 4.288 1.283 3.85m-1.467-4.95c5.363-1.555 4.674 6.63 0 5.5-1.871-.452-3.017-4.625 0-5.5"/><path d="M92.717 68.15c.496 2.404 4.604 1.865 4.033-1.1-.181-.943-.927-1.895-2.75-1.283-1.084.363-1.615.777-1.283 2.383m1.1-3.483c3.783-1.006 5.448 4.626 1.833 5.5-3.517.851-5.449-4.539-1.833-5.5"/><path d="M60.267 68.517c2.289-1.142-1.342-3.629-1.283-.733.322.351.686.658 1.283.733m-.917-2.75c3.29-1.176 3.368 3.449 1.283 3.85-2.273.438-3.728-2.976-1.283-3.85"/><path d="M95.283 68.517c.041-.143.154-.213.367-.183.111-.439.264-.836.183-1.467-1.654-1.572-3.067 1.921-.55 1.65m-1.283-2.75c1.823-.611 2.569.34 2.75 1.283.571 2.965-3.538 3.504-4.033 1.1-.331-1.606.2-2.02 1.283-2.383"/><path d="M58.983 67.783c-.059-2.895 3.572-.408 1.283.733-.597-.075-.962-.383-1.283-.733"/><path d="M95.833 66.867c.08.63-.073 1.028-.183 1.467-.213-.03-.326.041-.367.183-2.517.271-1.104-3.222.55-1.65"/><path d="M88.133 75.117h3.3v1.833h-5.867c-.802-3.984-2.716-7.982-6.967-8.433-4.395-.467-7.384 2.054-8.617 5.683 3.02-1.136 5.59-2.721 8.617-3.85 1.15 2.517 2.818 4.515 4.033 6.967-1.642.571-3.251 2.109-4.767 2.2-.107-.382-.385-.593-.55-.917.479-1.049 1.946-1.109 2.75-1.833-.69-1.327-1.426-2.607-2.383-3.667-4.095 1.955-7.333 4.766-14.3 3.85v-1.833h3.117c1.143-5.776 6.073-9.204 13.017-8.433 4.836.537 7.247 4.373 8.617 8.433"/><path d="M47.25 80.067c-2.216-.9-4.092-2.142-6.417-2.933 1.954-1.224 4.388-1.968 6.417-3.117.768 1.341-.069 4.191 0 6.05"/><path d="M107.383 74.2c2.354 1.007 4.595 2.128 6.967 3.117-2.093 1.268-4.664 2.058-6.783 3.3-.427-1.773-.062-4.338-.183-6.417"/><path d="M94.183 79.333h1.467v-4.217h-1.467z"/><path d="M96.383 79.333h4.217v-4.217h-4.217z"/><path d="M54.217 79.517h4.033v-4.217h-4.033z"/><path d="M59.167 75.3c.528.022 1.2-.1 1.467.183-.104 1.363.22 3.153-.183 4.217h-1.283v-4.4z"/><path d="M77.317 76.583l-2.933 1.283 2.2 4.033c4.474-1.717 7.168-5.132 14.85-4.033v1.833h-3.117c-1.247 5.207-5.464 8.682-11.55 8.617-5.477-.059-8.857-3.55-10.083-8.25h-3.483v-2.2h5.867c.834 3.828 2.597 7.833 6.6 8.433 4.644.696 7.662-1.93 8.983-5.5-2.564.676-5.565 2.502-8.25 3.667-1.734-2.055-3.002-4.575-4.4-6.967 1.784-.204 4.446-3.739 5.317-.917"/><path d="M53.85 81.533c5.593-.428 12.981-1.018 13.933 4.4.498 2.832-1.047 4.942-2.383 6.783-.903 1.244-2.619 2.533-2.567 3.667.086 1.875 6.972 5.886 9.533 4.217 1.987-1.295 1.327-7.87 1.65-10.817.823-.09 1.374.093 2.017.183 1.508 4.095.513 12.128-2.017 14.667-3.314-.333-5.748-1.283-8.617-2.567-2.079-.93-6.028-2.523-6.233-4.95-.144-1.705 1.591-3.785 2.75-5.317 1.024-1.352 3.093-2.953 2.933-4.95-.114-1.425-1.816-2.76-2.933-3.117-3.36-1.073-6.482 1.418-10.267 1.1-1.031-1.354-1.591-4.152-1.1-6.417 1.918-1.146 2.731 1.718 3.3 3.117"/><path d="M103.9 78.05c1.279 1.747.237 5.497-.733 6.783-3.139.235-6.125-1.574-8.983-1.283-1.784.181-3.982 1.446-4.217 3.117-.489 3.482 5.806 6.765 5.683 10.267-.087 2.493-4.018 4.224-6.05 5.133-1.125.503-2.674.971-4.217 1.467-1.095.351-3.165 1.4-4.4 1.1-3.07-.745-3.226-11.283-2.383-14.483.538-.318 1.279-.432 2.2-.367.599 2.434-.635 9.239 1.467 10.817 2.874 2.158 8.886-2.478 9.717-4.033-1.143-3.882-5.382-5.264-4.95-10.083.495-5.533 7.857-5.686 13.75-4.95 1.095-1.105.879-3.521 3.117-3.483"/><path d="M59.35 89.417c3.322.97 3.909-4.904.183-3.85-2.181.617-1.371 3.503-.183 3.85m0-4.4c2.344-.577 3.433.651 3.667 2.017.749 4.384-5.62 4.742-5.867.917-.112-1.738.73-2.572 2.2-2.933"/><path d="M96.75 87.767c.198-1.752-1.095-2.764-2.75-2.2-4.17 1.42 2.24 6.721 2.75 2.2m-2.933-2.75c4.216-1.177 4.97 4.732 1.833 5.5-3.689.904-5.321-4.526-1.833-5.5"/><path d="M59.533 88.5c4.417-.462-1.763-4.018 0 0m0-2.933c3.726-1.054 3.138 4.82-.183 3.85-1.187-.347-1.997-3.233.183-3.85"/><path d="M95.833 87.033c-3.946-2.227-.575 4.219 0 0m-1.833-1.467c1.655-.564 2.948.448 2.75 2.2-.51 4.521-6.92-.78-2.75-2.2"/><path d="M54.217 85.567c.686.826 1.687 2.265 2.75 3.85 1.239 1.847 3.641 4.174 1.283 5.5-2.692-2.258-4.509-5.39-6.233-8.617.309-.669 1.118-.838 2.2-.733"/><path d="M102.617 86.117c-1.018 3.203-3.502 6.517-6.05 8.8-.265-.294-1.005-.659-1.1-1.283-.09-.591 4.181-7.788 5.317-8.067.865-.212 1.629.104 1.833.55"/><path d="M59.533 88.5c-1.763-4.018 4.417-.462 0 0"/><path d="M95.833 87.033c-.575 4.219-3.946-2.227 0 0"/><path d="M69.067 88.683c1.43.464 2.469 1.32 3.85 1.833-.115.68-.515 1.073-.733 1.65-1.45-.444-2.45-1.339-3.85-1.833.218-.577.619-.97.733-1.65"/><path d="M86.117 90.333c-1.33.564-2.425 1.364-3.85 1.833l-.733-1.65c1.77-.298 4.082-3.328 4.583-.183"/><path d="M67.967 91.25l3.85 1.833c-.218.577-.619.97-.733 1.65-1.425-.47-2.52-1.269-3.85-1.833.115-.68.515-1.073.733-1.65"/><path d="M87.217 92.9c-1.14.632-2.446 1.099-3.483 1.833-.565-.29-.643-1.068-1.1-1.467 1.468-.507 4.237-3.535 4.583-.367"/><path d="M66.5 93.817c1.351.543 2.457 1.332 3.667 2.017-.635 1.442-1.678 2.477-2.2 4.033-1.379-.516-2.416-1.373-3.667-2.017.547-1.531 1.495-2.66 2.2-4.033"/><path d="M90.333 97.667c-1.008.887-2.428 1.361-3.483 2.2-1.187-.952-1.462-2.816-2.567-3.85 1.139-.877 2.345-1.689 3.85-2.2.595 1.422 1.325 2.709 2.2 3.85"/><path d="M102.617 94.183c3.542 5.808 6.609 12.091 9.9 18.15-6.057-2.988-11.966-6.123-18.15-8.983.491-1.098 1.538-1.64 2.2-2.567 2.742.986 5.241 2.214 7.883 3.3-.763-2.354-2.52-5.302-3.85-7.7l2.017-2.2"/><path d="M50.733 94.367c.986.664 2.029 1.271 2.567 2.383-1.174 2.492-2.228 5.106-3.3 7.7 2.637-1.152 5.161-2.417 7.517-3.85.941.587 1.873 1.182 2.383 2.2-6.083 3.084-11.907 6.426-17.967 9.533l8.8-17.967"/><path d="M54.033 97.3c1.225.791 2.24 1.793 3.117 2.933-1.993.513-3.438 1.574-5.317 2.2.707-1.738 1.519-3.37 2.2-5.133"/><path d="M102.8 102.433c-1.753-.752-3.509-1.502-5.317-2.2.819-1.014 1.717-1.95 2.567-2.933 1.353 1.275 1.841 3.414 2.75 5.133"/><path d="M77.133 118.567c1.35-3.641 2.427-8.448 5.133-11 1.427-1.345 4.685-2.831 7.15-1.833 3.63 1.469 1.385 9.948-3.3 7.15-.803-1.939.927-2.505 1.283-3.85-4.517-.929-4.748 4.602-5.683 8.8-1.39 6.24-3.479 13.902-4.583 20.167-1.046-3.838-1.924-8.456-2.933-13.017-1.01-4.566-1.492-9.546-2.933-13.017-.645-1.554-2.737-4.217-4.767-2.933-.016 1.238 1.707.738 2.017 1.65.127 1.166-.228 1.85-.733 2.383-5.492 1.436-7.013-7.16-1.65-7.7 6.702-.676 9.938 7.864 11 13.2"/><path d="M73.833 107.75c2.03.109 4.111.166 6.05.367-.96 2.156-2.108 4.125-2.933 6.417-1.254-2.046-2.162-4.438-3.117-6.783"/><path d="M41.75 42.3c5.777 2.596 11.863 6.47 17.967 9.35.185.903-1.42 1.48-1.833 2.383-2.63-1.342-5.345-2.599-7.883-4.033.968 2.76 2.158 5.298 3.3 7.883-.666.984-1.545 1.755-2.567 2.383-2.893-6.091-5.887-12.08-8.983-17.967"/><path d="M112.333 42.3c-2.563 5.809-6.445 11.888-9.35 17.967-.782.064-1.723-1.177-2.2-2.017 1.111-2.739 2.615-5.086 3.85-7.7-2.259.736-5.365 2.213-7.883 3.3-.843-.807-1.845-1.455-2.383-2.567 6.091-2.893 12.08-5.887 17.967-8.983"/></g></svg>