<!DOCTYPE svg PUBLIC "-//W3C//DTD SVG 1.1//EN" "http://www.w3.org/Graphics/SVG/1.1/DTD/svg11.dtd" [
	<!ENTITY ns_flows "http://ns.adobe.com/Flows/1.0/">
]><svg xmlns="http://www.w3.org/2000/svg" width="56" height="55" viewBox="-1 -0.9 56 55" overflow="visible" enable-background="new -1 -0.9 56 55"><path fill-rule="evenodd" clip-rule="evenodd" d="M39 10.9c1.3.4 1.6 1.8 3 2-.3 3.7-3.4 4.6-6 6-.1 4.4 5.2 3.5 6 7-.5 3.2-3.9 3.4-6 5-.1 4.8 9 4.5 5 10-5.3.6-4.1-5.3-8-6-2.2.8-2.5 3.5-4 5-3.6-4 2.4-6.9 5-8 1.4-3.8 2.3-4.1 2-7-.6-5.4-9.5-5.7-8-13 2.6.7 2.1 4.6 5 5 3.5-.5 3.3-4.7 6-6zM9 21.9c.2 2.2-.8 3.2-3 3-.9 3.2 2.6 2.1 3 4-1.5 6.8-9.5.4-9-4 1.9-2.8 5.9-7 9-3zM45 29.9l3-4c-.4-2.3-4.4-2.7-2-5 11-5 8.6 17.5-1 9zM23 43.9c2.2 2.2 5.6 4.5 7 0 6.2 3.3 1.5 9.1-3 9-3.9 0-8-5.3-4-9zM13.7 41c-1.3-.4-1.6-1.8-3-2 .3-3.7 3.4-4.6 6-6 .1-4.4-5.2-3.5-6-7 .5-3.2 3.9-3.4 6-5 .1-4.8-9-4.5-5-10 5.3-.6 4.1 5.3 8 6 2.2-.8 2.5-3.5 4-5 3.6 4-2.4 6.9-5 8-1.4 3.8-2.3 4.1-2 7 .6 5.4 9.5 5.7 8 13-2.6-.7-2.1-4.6-5-5-3.5.5-3.3 4.7-6 6zM30.5 9c-2.2-2.2-5.6-4.5-7 0-6.2-3.3-1.5-9.1 3-9 4 .1 8 5.3 4 9z"/></svg>